<svg width="64" height="64" viewBox="0 0 64 64" fill="none" xmlns="http://www.w3.org/2000/svg">
<path d="M32 62.8571C49.0419 62.8571 62.8571 49.0419 62.8571 32C62.8571 14.958 49.0419 1.14282 32 1.14282C14.9581 1.14282 1.14285 14.958 1.14285 32C1.14285 49.0419 14.9581 62.8571 32 62.8571Z" stroke="white" stroke-width="2"/>
<path d="M44.571 45.5717V42.5434C44.571 40.937 43.9328 39.3964 42.7969 38.2605C41.661 37.1246 40.1205 36.4866 38.5142 36.4866H26.4006C24.7942 36.4866 23.2536 37.1246 22.1177 38.2605C20.9818 39.3964 20.3438 40.937 20.3438 42.5434V45.5717" stroke="white" stroke-width="2" stroke-linecap="round" stroke-linejoin="round"/>
<path d="M32.4575 30.4305C35.8025 30.4305 38.5143 27.7188 38.5143 24.3737C38.5143 21.0287 35.8025 18.3169 32.4575 18.3169C29.1124 18.3169 26.4007 21.0287 26.4007 24.3737C26.4007 27.7188 29.1124 30.4305 32.4575 30.4305Z" stroke="white" stroke-width="2" stroke-linecap="round" stroke-linejoin="round"/>
</svg>
