<svg width="22" height="22" viewBox="0 0 22 22" fill="none" xmlns="http://www.w3.org/2000/svg">
<path d="M20 5.63964C19.3312 5.92731 18.6622 6.10696 17.9938 6.17912C18.7488 5.72609 19.2595 5.08606 19.5257 4.25911C18.8349 4.66892 18.0979 4.9493 17.3142 5.10038C16.6238 4.3669 15.7754 4 14.7684 4C13.8049 4 12.9834 4.33973 12.3035 5.01934C11.6241 5.69891 11.2843 6.52044 11.2843 7.48402C11.2843 7.74285 11.313 8.00903 11.3706 8.28226C9.94668 8.21036 8.61095 7.85262 7.36319 7.20901C6.11549 6.56532 5.05659 5.70776 4.18649 4.63632C3.87006 5.17553 3.7118 5.76171 3.7118 6.39452C3.7118 6.99139 3.85201 7.54518 4.13261 8.05577C4.41303 8.56627 4.79065 8.97971 5.26529 9.29616C4.70428 9.27455 4.17934 9.1271 3.69042 8.85382V8.89696C3.69042 9.7384 3.9547 10.4771 4.48319 11.1138C5.01175 11.7503 5.67878 12.151 6.48413 12.3164C6.18207 12.3955 5.87638 12.435 5.5672 12.435C5.36583 12.435 5.14647 12.4171 4.90921 12.3814C5.13212 13.0788 5.54204 13.652 6.13884 14.1018C6.73575 14.5511 7.41173 14.7828 8.16683 14.7976C6.90123 15.7898 5.45941 16.2859 3.84139 16.2859C3.53211 16.2859 3.25174 16.2718 3 16.2429C4.61807 17.2855 6.40146 17.8068 8.3503 17.8068C9.58718 17.8068 10.7486 17.6111 11.8341 17.219C12.9202 16.8273 13.8478 16.3022 14.6173 15.6441C15.3866 14.9862 16.0501 14.2293 16.6074 13.3735C17.1646 12.5178 17.5798 11.6243 17.8533 10.6931C18.1265 9.76167 18.2631 8.82881 18.2631 7.89379C18.2631 7.69242 18.2595 7.54148 18.2523 7.44075C18.9357 6.9448 19.5181 6.34422 20 5.63964Z" fill="#959595"/>
</svg>
